<?xml version="1.0" standalone="no"?><svg xmlns="http://www.w3.org/2000/svg" viewBox="0 0 1440 320"><path fill="#90c418" fill-opacity="1" d="M0,96L34.3,85.3C68.6,75,137,53,206,74.7C274.3,96,343,160,411,186.7C480,213,549,203,617,197.3C685.7,192,754,192,823,170.7C891.4,149,960,107,1029,90.7C1097.1,75,1166,85,1234,85.3C1302.9,85,1371,75,1406,69.3L1440,64L1440,0L1405.7,0C1371.4,0,1303,0,1234,0C1165.7,0,1097,0,1029,0C960,0,891,0,823,0C754.3,0,686,0,617,0C548.6,0,480,0,411,0C342.9,0,274,0,206,0C137.1,0,69,0,34,0L0,0Z"></path></svg>